<?xml version="1.0" encoding="utf-8"?>
<svg version="1.1" xmlns:xlink="http://www.w3.org/1999/xlink" width="70px" height="27px" xmlns="http://www.w3.org/2000/svg">
  <defs>
    <mask fill="white" id="clip4">
      <path d="M 0 18  L 0 9  C 0 3.95999999999998  2.65517241379316 0  6.03448275862069 0  L 26.551724137931 0  L 63.9655172413793 0  C 67.3448275862068 0  70 3.95999999999998  70 9  L 70 18  C 70 23.04  67.3448275862068 27  63.9655172413793 27  L 6.03448275862069 27  C 2.65517241379316 27  0 23.04  0 18  Z " fill-rule="evenodd" />
    </mask>
  </defs>
  <g transform="matrix(1 0 0 1 -1120 -327 )">
    <path d="M 0 18  L 0 9  C 0 3.95999999999998  2.65517241379316 0  6.03448275862069 0  L 26.551724137931 0  L 63.9655172413793 0  C 67.3448275862068 0  70 3.95999999999998  70 9  L 70 18  C 70 23.04  67.3448275862068 27  63.9655172413793 27  L 6.03448275862069 27  C 2.65517241379316 27  0 23.04  0 18  Z " fill-rule="nonzero" fill="#ffffff" stroke="none" transform="matrix(1 0 0 1 1120 327 )" />
    <path d="M 0 18  L 0 9  C 0 3.95999999999998  2.65517241379316 0  6.03448275862069 0  L 26.551724137931 0  L 63.9655172413793 0  C 67.3448275862068 0  70 3.95999999999998  70 9  L 70 18  C 70 23.04  67.3448275862068 27  63.9655172413793 27  L 6.03448275862069 27  C 2.65517241379316 27  0 23.04  0 18  Z " stroke-width="2" stroke="#797979" fill="none" transform="matrix(1 0 0 1 1120 327 )" mask="url(#clip4)" />
  </g>
</svg>